<?xml version="1.0" standalone="no"?><!DOCTYPE svg PUBLIC "-//W3C//DTD SVG 1.1//EN" "http://www.w3.org/Graphics/SVG/1.1/DTD/svg11.dtd"><svg t="1688905230737" class="icon" viewBox="0 0 1024 1024" version="1.1" xmlns="http://www.w3.org/2000/svg" p-id="23967" xmlns:xlink="http://www.w3.org/1999/xlink" width="32" height="32"><path d="M707.87072 484.6592c37.49888-44.544 60.12928-102.01088 60.12928-164.6592 0-141.16864-114.85184-256-256-256l-320 0 0 896 384 0c141.14816 0 256-114.85184 256-256 0-92.95872-49.80736-174.4896-124.12928-219.3408zM384 192l101.49888 0c55.97184 0 101.49888 57.42592 101.49888 128s-45.52704 128-101.49888 128l-101.49888 0 0-256zM543.00672 832l-159.00672 0 0-256 159.00672 0c58.44992 0 106.00448 57.42592 106.00448 128s-47.55456 128-106.00448 128z" fill="currentColor" p-id="23968"></path></svg>