<?xml version="1.0" standalone="no"?><!DOCTYPE svg PUBLIC "-//W3C//DTD SVG 1.1//EN" "http://www.w3.org/Graphics/SVG/1.1/DTD/svg11.dtd"><svg t="1688903956267" class="icon" viewBox="0 0 1024 1024" version="1.1" xmlns="http://www.w3.org/2000/svg" p-id="4501" xmlns:xlink="http://www.w3.org/1999/xlink" width="32" height="32"><path d="M798 160H366c-4.4 0-8 3.6-8 8v64c0 4.4 3.6 8 8 8h181.2l-156 544H229c-4.4 0-8 3.6-8 8v64c0 4.4 3.6 8 8 8h432c4.4 0 8-3.6 8-8v-64c0-4.4-3.6-8-8-8H474.4l156-544H798c4.4 0 8-3.6 8-8v-64c0-4.4-3.6-8-8-8z" p-id="4502" fill="#374151"></path></svg>